<svg xmlns="http://www.w3.org/2000/svg" version="1.1" xmlns:xlink="http://www.w3.org/1999/xlink" xmlns:svgjs="http://svgjs.com/svgjs" width="1440" height="560" preserveAspectRatio="none" viewBox="0 0 1440 560"><g mask="url(&quot;#SvgjsMask1031&quot;)" fill="none"><rect width="1440" height="560" x="0" y="0" fill="#0e2a47"></rect><path d="M0,416.239C99.091,425.531,200.546,494.689,290.361,451.81C380.273,408.884,425.805,301.146,445.603,203.5C463.536,115.056,416.942,30.561,393.437,-56.568C372.97,-132.436,368.036,-214.93,316.68,-274.405C265.285,-333.925,188.231,-362.02,112.233,-382.229C37.744,-402.037,-38.645,-404.153,-114.216,-388.985C-195.273,-372.715,-272.312,-343.477,-337.045,-292.051C-411.506,-232.897,-492.168,-166.667,-511.319,-73.517C-530.725,20.875,-483.746,115.193,-438.233,200.134C-394.864,281.072,-339.711,359.84,-257.355,400.452C-178.678,439.25,-87.34,408.049,0,416.239" fill="#091b2e"></path><path d="M1440 1201.3890000000001C1562.634 1205.1280000000002 1690.542 1175.213 1785.241 1097.2060000000001 1875.971 1022.4680000000001 1885.366 892.356 1940.921 788.763 2001.4180000000001 675.955 2121.259 589.241 2126.248 461.332 2131.447 328.043 2075.701 181.02100000000002 1967.6779999999999 102.76499999999999 1861.622 25.932999999999993 1710.254 104.42700000000002 1584.261 68.69400000000002 1460.13 33.48900000000003 1373.976-115.10199999999998 1245.614-102.019 1117.105-88.92100000000005 1015.932 23.774999999999977 947.861 133.55900000000003 884.696 235.43099999999998 875.912 360.605 884.642 480.152 892.172 583.27 957.6120000000001 666.913 993.8779999999999 763.737 1033.617 869.832 1027.156 997.217 1108.03 1076.556 1194.1680000000001 1161.058 1319.39 1197.711 1440 1201.3890000000001" fill="#133960"></path></g><defs><mask id="SvgjsMask1031"><rect width="1440" height="560" fill="#ffffff"></rect></mask></defs></svg>